<?xml version="1.0" encoding="UTF-8"?>
<svg id="Layer_2" data-name="Layer 2" xmlns="http://www.w3.org/2000/svg" viewBox="0 0 567.23 350.23">
  <defs>
    <style>
      .cls-1 {
        fill: #752b24;
      }

      .cls-2 {
        fill: #ab846c;
      }

      .cls-3 {
        fill: none;
        stroke: #ab846c;
        stroke-linecap: round;
        stroke-miterlimit: 10;
        stroke-width: 10px;
      }
    </style>
  </defs>
  <path class="cls-3" d="m5,246.22C25.04,108.8,143.7,5.69,282.35,5c139.05-.68,258.95,101.85,279.87,239.53"/>
  <path class="cls-3" d="m41.2,246.22C58.49,127.68,160.85,38.72,280.46,38.14c119.95-.59,223.38,87.86,241.43,206.63"/>
  <path class="cls-3" d="m79.75,246.22c14.46-99.16,100.09-173.58,200.15-174.07,100.35-.49,186.87,73.5,201.97,172.86"/>
  <g>
    <g>
      <path class="cls-1" d="m226.71,166.56c-2.87,5.32-17.74,30.77-20.61,36.09-1.94-3.42-7.27-28.85-22.13-34.61-16.98-6.58-25.19-1.72-28.39-.4,4.15-3.49,10.88-8.05,20.07-10.12,24.9-5.61,48.63,6.83,51.07,9.05Z"/>
      <path class="cls-1" d="m203.64,223.04c1.73,5.79,9.21,34.3,10.94,40.09-3.79-1.05-25.54-15.26-40.12-8.83-16.66,7.35-19.03,16.59-20.36,19.79.47-5.4,2-13.39,7.03-21.35,13.64-21.57,39.22-29.56,42.51-29.71Z"/>
      <path class="cls-1" d="m280.35,300.69c5.79-1.73,34.3-9.21,40.09-10.94-1.05,3.79-15.26,25.54-8.83,40.12,7.35,16.66,16.59,19.03,19.79,20.36-5.4-.47-13.39-2-21.35-7.03-21.57-13.64-29.56-39.22-29.71-42.51Z"/>
      <path class="cls-1" d="m361.39,218.05c-1.73-5.79-9.21-34.3-10.94-40.09,3.79,1.05,25.54,15.26,40.12,8.83,16.66-7.35,19.03-16.59,20.36-19.79-.47,5.4-2,13.39-7.03,21.35-13.64,21.57-39.22,29.56-42.51,29.71Z"/>
      <path class="cls-1" d="m283.3,142.8c-5.79,1.73-34.3,9.21-40.09,10.94,1.05-3.79,15.26-25.54,8.83-40.12-7.35-16.66-16.59-19.03-19.79-20.36,5.4.47,13.39,2,21.35,7.03,21.57,13.64,29.56,39.22,29.71,42.51Z"/>
      <path class="cls-1" d="m227.29,278.85c5.32,2.87,30.77,17.74,36.09,20.61-3.42,1.94-28.85,7.27-34.61,22.13-6.58,16.98-1.72,25.19-.4,28.39-3.49-4.15-8.05-10.88-10.12-20.07-5.61-24.9,6.83-48.63,9.05-51.07Z"/>
      <path class="cls-1" d="m339.5,165.83c-5.32-2.87-30.77-17.74-36.09-20.61,3.42-1.94,28.85-7.27,34.61-22.13,6.58-16.98,1.72-25.19.4-28.39,3.49,4.15,8.05,10.88,10.12,20.07,5.61,24.9-6.83,48.63-9.05,51.07Z"/>
      <path class="cls-1" d="m339.91,278.45c2.87-5.32,17.74-30.77,20.61-36.09,1.94,3.42,7.27,28.85,22.13,34.61,16.98,6.58,25.19,1.72,28.39.4-4.15,3.49-10.88,8.05-20.07,10.12-24.9,5.61-48.63-6.83-51.07-9.05Z"/>
      <circle class="cls-1" cx="284.33" cy="220.72" r="81.58"/>
    </g>
    <circle class="cls-2" cx="284.33" cy="220.72" r="62.37"/>
  </g>
</svg>